<?xml version="1.0" encoding="utf-8"?>
<!-- Generator: Adobe Illustrator 25.2.1, SVG Export Plug-In . SVG Version: 6.00 Build 0)  -->
<svg version="1.1" id="Слой_2_1_" xmlns="http://www.w3.org/2000/svg" xmlns:xlink="http://www.w3.org/1999/xlink" x="0px"
	 y="0px" viewBox="0 0 1000 1000" style="enable-background:new 0 0 1000 1000;" xml:space="preserve">
<style type="text/css">
	.st0{fill:#FFFFFF;}
	.st1{fill:#FFFFFF;stroke:#000000;stroke-width:10;stroke-miterlimit:10;}
	.st2{fill:#FFFFFF;stroke:#000000;stroke-width:20;stroke-miterlimit:10;}
	.st3{fill:#FFFFFF;stroke:#000000;stroke-width:7.96;stroke-miterlimit:10;}
	.st4{fill:none;stroke:#000000;stroke-width:10;stroke-miterlimit:10;}
	.st5{fill:none;stroke:#000000;stroke-width:10;stroke-miterlimit:10;stroke-dasharray:35.03;}
</style>
<path class="st0" d="M539.5,155.4h-79c-4.3,0-7.8-3.5-7.8-7.8V94.9c0-4.3,3.5-7.8,7.8-7.8h79c4.3,0,7.8,3.5,7.8,7.8v52.7
	C547.3,151.9,543.8,155.4,539.5,155.4z"/>
<polyline class="st1" points="531.1,155.3 531.1,252.7 469.4,252.7 469.4,155.3 "/>
<circle class="st2" cx="500" cy="612.2" r="359.5"/>
<path d="M667.5,745.5c9.3-19,19.2-44.1,27.9-70.6c4.6-14.1,24.7-77.8,23.5-114c-0.2-7.6,4.4-14.5,11.5-17.2l110.7-43.3l-3.4-9.4
	l-112.6,34.7c-7.4,2.3-15.5-0.5-19.9-6.8c-4.5-6.4-11.8-14.7-23.7-25.9c-15.7-14.8-37.1-32.2-60.3-49c-17-12.4-67.6-48-99.5-58.2
	c-7.2-2.3-12.3-8.9-12.6-16.5L505,254.7h-10l-4.3,114.6c-0.3,7.6-5.3,14.2-12.6,16.5c-31.9,10.2-82.5,45.8-99.5,58.2
	c-23.1,16.8-44.5,34.2-60.3,49c-11.7,11-18.9,19.2-23.4,25.5s-12.5,9-19.9,6.7l-112.6-35l-3.3,9.5l110.6,43.6
	c7.1,2.7,11.6,9.6,11.4,17.2c-1.3,36.1,18.9,100.4,23.5,114.5c8.7,26.5,18.6,51.5,27.9,70.6c7,14.3,12.9,23.6,17.7,29.8
	c4.9,6.2,5.2,14.9,0.6,21.4l-71.1,101.8l8,6l78.5-96.8c5-6.1,13.4-8.3,20.8-5.3c31.6,12.6,92.6,13.7,113,13.7
	c20.4,0,81.3-1.1,112.9-13.7c7.3-2.9,15.7-0.8,20.7,5.3l78.2,97l8-6l-70.8-102c-4.5-6.5-4.2-15.2,0.7-21.4
	C654.6,769.2,660.5,759.9,667.5,745.5z M577.4,790.6c-21.1,3.4-48.6,5.3-77.4,5.3c-28.8,0-56.3-1.9-77.4-5.3
	c-32-5.2-36.4-11.8-36.5-11.8c0.2,0.3-14.4-10.1-13.7-9.9c-0.1,0-7.9-3.1-23.3-35.3c-10.1-21-20.4-48.2-29.2-76.9
	c-7.9-25.8-13.9-50.6-16.8-69.9c-4.4-29.3-0.3-35.3-0.2-35.4c-0.4,0.6,4.7-15.7,4.5-14.2c0-0.3,1.4-8,26.6-31.4
	c16.3-15.1,38.2-32.7,61.8-49.6c22.3-16,44.5-30.1,62.3-39.6c27.5-14.8,34.7-13.6,35-13.6c-1.4-0.3,15.2-0.3,13.8,0
	c0.3-0.1,7.5-1.2,35,13.6c17.8,9.6,39.9,23.7,62.3,39.6c23.6,16.9,45.6,34.5,61.8,49.6c25.2,23.4,26.5,31.1,26.6,31.4
	c-0.2-1.4,4.9,14.8,4.5,14.2c0,0.1,4.2,6.1-0.2,35.4c-2.9,19.3-8.9,44.1-16.8,69.9c-8.8,28.6-19.1,55.9-29.2,76.8
	c-15.4,32.2-23.2,35.3-23.3,35.3c0.7-0.2-13.9,10.1-13.7,9.9C613.8,778.9,609.4,785.4,577.4,790.6z"/>
<path class="st3" d="M195.9,311.6l17.4-16.6c7.5-7.2,19.5-6.9,26.7,0.6l0,0l29.6,31l0,0L225,369.2l0,0l-29.6-31
	C188.1,330.7,188.4,318.8,195.9,311.6L195.9,311.6L195.9,311.6z"/>
<path d="M463.8,155.3h-4.3c-4.5,0-8.1-3.6-8.1-8.1l0,0v-52c0-4.5,3.6-8.1,8.1-8.1l0,0h4.3c-4.5,0-8.1,3.6-8.1,8.1l0,0v52
	C455.7,151.7,459.3,155.3,463.8,155.3L463.8,155.3z"/>
<path d="M549,95.2v52c0,4.5-3.6,8.1-8.1,8.1l0,0h-4.3c4.5,0,8.1-3.6,8.1-8.1l0,0v-52c0-4.5-3.6-8.1-8.1-8.1l0,0h4.3
	C545.4,87.1,549,90.7,549,95.2L549,95.2z"/>
<path d="M475.1,155.3h-8.3c-3.2,0-5.8-2.6-5.8-5.8V92.9c0-3.2,2.6-5.8,5.8-5.8h8.3c-3.2,0-5.8,2.6-5.8,5.8v56.7
	C469.4,152.7,471.9,155.3,475.1,155.3z"/>
<path d="M539.4,92.9v56.7c0,3.2-2.6,5.8-5.8,5.8l0,0h-8.3c3.2,0,5.8-2.6,5.8-5.8l0,0V92.9c0-3.2-2.6-5.8-5.8-5.8l0,0h8.3
	C536.8,87.1,539.4,89.7,539.4,92.9L539.4,92.9z"/>
<path d="M492,155.3h-9.9c-3.2,0-5.8-2.6-5.8-5.8V92.9c0-3.2,2.6-5.8,5.8-5.8h9.9c-3.2,0-5.8,2.6-5.8,5.8v56.7
	C486.3,152.7,488.8,155.3,492,155.3z"/>
<path d="M524.1,92.9v56.7c0,3.2-2.6,5.8-5.8,5.8l0,0h-9.9c3.2,0,5.8-2.6,5.8-5.8V92.9c0-3.2-2.6-5.8-5.8-5.8h9.9
	C521.5,87.1,524.1,89.7,524.1,92.9L524.1,92.9z"/>
<path d="M506,88.8v64.8c0,1-0.8,1.7-1.7,1.7l0,0h-8c-1,0-1.7-0.8-1.8-1.7l0,0V88.8c0-1,0.8-1.7,1.7-1.7l0,0h8
	C505.2,87.1,506,87.9,506,88.8z"/>
<path class="st4" d="M469.4,209.9c-49-16.9-75-70.3-58-119.3c16.9-49,70.3-75,119.3-58c49,16.9,75,70.3,58,119.3
	c-9.4,27.1-30.6,48.4-57.6,57.9"/>
<line class="st5" x1="500" y1="429" x2="500" y2="455.2"/>
<line class="st5" x1="500" y1="791.4" x2="500" y2="765.2"/>
<line class="st5" x1="318.8" y1="610.2" x2="345" y2="610.2"/>
<line class="st5" x1="681.2" y1="610.2" x2="655" y2="610.2"/>
<line class="st5" x1="591.1" y1="766.9" x2="577.9" y2="744.2"/>
<line class="st5" x1="343.3" y1="519.1" x2="366" y2="532.3"/>
<line class="st5" x1="408.9" y1="453.5" x2="422.1" y2="476.2"/>
<line class="st5" x1="591.1" y1="453.5" x2="577.9" y2="476.2"/>
<line class="st5" x1="656.7" y1="519.1" x2="634" y2="532.3"/>
<line class="st5" x1="656.7" y1="701.3" x2="634" y2="688.1"/>
<line class="st5" x1="343.3" y1="701.3" x2="366" y2="688.1"/>
<line class="st5" x1="408.9" y1="766.9" x2="422.1" y2="744.2"/>
<circle cx="500" cy="612.2" r="19.2"/>
<path d="M452.9,644.5l14.6,14.6c46.9-59.7,151.6-161.9,151.6-161.9l-4.3-3.8C614.8,493.4,512.2,599.5,452.9,644.5z"/>
<path d="M452.9,644.5l14.6,14.6c46.9-59.7,151.6-161.9,151.6-161.9"/>
<path d="M452.9,644.5l14.6,14.6c44.7-59.7,151.6-161.9,151.6-161.9"/>
</svg>
